<svg xmlns="http://www.w3.org/2000/svg" version="1.1" xmlns:xlink="http://www.w3.org/1999/xlink" width="2000px" height="2000px"><svg version="1.1" id="SvgjsSvg1010" xmlns="http://www.w3.org/2000/svg" xmlns:xlink="http://www.w3.org/1999/xlink" x="0px" y="0px" width="2000px" height="2000px" viewBox="0 0 2000 2000" enable-background="new 0 0 2000 2000" xml:space="preserve">
<circle fill="#141314" cx="1000" cy="1000.002" r="1000"></circle>
<path fill="#FFFFFF" d="M763.899,1573.003c41.033-191.855,52.955-509.859,59.886-655.414
	c6.932-145.556,2.496-259.643,75.411-412.545c-146.109,134.049-176.627,683.642-354.877,916.027
	c-149.714,195.183-334.916,196.291-411.298,77.075c-67.019-104.604,29.618-111.579,58.638-151.377
	c38.815-53.232,99.619-67.137,104.245,8.871c7.763,127.534,96.482,147.497,168.566,64.321
	c57.135-65.923,65.431-92.046,127.535-242.868c62.104-150.823,89.829-334.917,125.316-441.38
	c35.488-106.464,55.45-154.15,130.861-282.793c27.383-46.713,51.013-88.72,110.899-93.155c59.885-4.436,88.719,0,117.552,0
	c-41.032,235.106,11.091,724.171-59.885,960.386c97.592-166.348,157.028-352.871,252.851-554.495
	c106.464-224.017,228.614-330.048,268.376-368.186c54.34-52.123,227.342-34.379,227.342-34.379
	c-77.628,189.638-103.135,240.651-160.803,495.719c-47.484,210.026-57.036,395.558-51.014,455.795
	c8.871,88.72,93.156,136.406,168.566,83.175c75.413-53.231,135.297-117.552,135.297-117.552v99.809
	c0,0-91.307,99.127-181.874,148.604c-119.771,65.431-263.485,87.154-333.806-77.63c-74.303-174.111-6.655-662.068,180.765-940.425
	c-191.856,225.125-308.3,607.728-399.237,782.948s-179.656,266.158-215.144,275.029
	C872.581,1577.439,763.899,1573.003,763.899,1573.003z"></path>
</svg><style>@media (prefers-color-scheme: light) { :root { filter: none; } }
@media (prefers-color-scheme: dark) { :root { filter: invert(100%); } }
</style></svg>